<?xml version="1.0" standalone="no"?>
<!DOCTYPE svg PUBLIC "-//W3C//DTD SVG 20010904//EN"
 "http://www.w3.org/TR/2001/REC-SVG-20010904/DTD/svg10.dtd">
<svg version="1.0" xmlns="http://www.w3.org/2000/svg"
 width="512.000000pt" height="512.000000pt" viewBox="0 0 512.000000 512.000000"
 preserveAspectRatio="xMidYMid meet">
<metadata>
Created by potrace 1.14, written by Peter Selinger 2001-2017
</metadata>
<g transform="translate(0.000000,512.000000) scale(0.100000,-0.100000)"
fill="#000000" stroke="none">
<path d="M4924 4528 c-55 -32 -106 -63 -114 -68 -8 -5 -73 -43 -145 -86 -71
-43 -230 -137 -353 -211 -122 -73 -225 -133 -229 -133 -4 0 -14 -6 -22 -14 -9
-7 -36 -25 -61 -38 -25 -14 -79 -45 -120 -70 -41 -25 -219 -131 -395 -236
-333 -198 -384 -237 -471 -352 -22 -30 -146 -199 -274 -375 -128 -176 -234
-321 -235 -323 -1 -1 -74 98 -163 220 -340 468 -428 585 -477 631 -30 29 -139
101 -270 179 -121 72 -244 146 -272 164 -29 19 -55 34 -58 34 -3 0 -41 23 -85
50 -44 28 -81 50 -83 50 -2 0 -80 46 -173 101 -93 56 -182 110 -199 119 -16
10 -160 95 -320 190 -160 95 -300 176 -312 181 -31 12 -87 -28 -91 -64 -6 -46
161 -351 291 -532 100 -140 213 -274 240 -286 21 -9 34 -9 52 -1 23 11 30 6
100 -65 63 -65 72 -79 64 -96 -15 -27 -2 -68 28 -94 236 -206 385 -358 462
-473 71 -107 140 -244 172 -345 28 -87 97 -339 94 -342 -1 -2 -36 -12 -77 -22
-196 -50 -361 -189 -436 -366 -11 -28 -22 -63 -24 -78 -2 -14 -7 -30 -12 -34
-4 -4 -68 -9 -142 -10 -134 -1 -176 -9 -246 -44 -48 -25 -113 -91 -139 -142
-29 -55 -48 -156 -37 -186 18 -50 22 -50 355 -51 l311 0 22 -35 c51 -83 182
-165 320 -201 55 -15 121 -18 437 -18 366 -1 373 -1 374 -21 6 -167 13 -195
67 -256 17 -19 52 -45 79 -59 43 -22 62 -24 183 -26 74 -1 140 -2 145 -3 6 -1
11 -26 11 -56 2 -80 38 -115 99 -95 38 13 55 49 51 112 -3 42 -8 40 84 41 l55
1 2 -58 c2 -63 18 -90 59 -100 23 -6 82 16 85 32 1 4 3 55 5 114 3 101 2 110
-20 135 l-23 27 -184 1 c-195 1 -215 5 -240 51 -12 23 -21 153 -10 155 3 1
124 2 267 3 278 1 286 3 298 51 6 25 7 25 131 25 100 0 125 -3 125 -14 0 -8 8
-24 19 -37 16 -20 27 -23 77 -21 33 1 68 4 79 6 138 28 226 78 344 196 96 96
160 143 222 160 17 5 146 10 286 10 158 1 264 5 278 12 66 30 47 174 -35 278
-61 77 -161 119 -346 144 -17 3 -80 14 -140 25 -60 11 -125 23 -144 26 -19 3
-71 12 -115 20 -44 8 -93 17 -110 19 -16 3 -100 17 -185 32 -85 14 -173 28
-195 31 -22 3 -42 7 -44 9 -2 2 2 23 8 46 15 57 20 75 25 96 3 9 15 51 26 92
12 41 24 86 26 99 3 14 7 28 9 32 5 7 53 179 61 216 10 49 54 166 77 205 28
48 98 122 207 218 40 36 81 72 90 80 9 8 47 41 83 74 214 189 394 362 482 465
50 57 95 108 100 115 6 6 29 36 53 66 23 30 45 60 50 65 100 124 339 541 349
610 4 28 -22 72 -45 76 -38 7 -63 -2 -148 -53z m-2423 -3477 c3 0 5 -29 5 -63
0 -35 3 -82 7 -106 l7 -42 -46 5 c-62 6 -91 27 -103 72 -11 44 -11 126 0 133
7 5 111 5 130 1z"/>
</g>
</svg>
